<?xml version="1.0" encoding="UTF-8"?> <svg xmlns="http://www.w3.org/2000/svg" width="206" height="38" viewBox="0 0 206 38" fill="none"><path d="M21.5735 2.43066C19.3522 3.81738 17.5262 5.72636 16.2649 7.99552C16.0767 7.99552 15.8696 7.97751 15.6814 7.97751C13.14 7.97751 10.7493 8.55381 8.62207 9.58034L21.5735 2.43066Z" fill="#3BD4AE"></path><path d="M37.2357 28.3994L24.2842 35.5671C26.5055 34.1804 28.3315 32.2714 29.574 30.0022C29.7622 30.0022 29.9693 30.0202 30.1575 30.0202C32.6989 30.0202 35.1085 29.4259 37.2357 28.3994Z" fill="#3BD4AE"></path><path d="M14.4575 15.0021C14.4575 12.4628 15.1163 10.0856 16.2646 7.99653C16.0764 7.99653 15.8693 7.97852 15.6811 7.97852C13.1397 7.97852 10.749 8.55481 8.62177 9.58134L7.11578 10.4098C2.84255 13.0931 0 17.7215 0 22.9982C0 31.2825 7.02166 37.9999 15.6811 37.9999C18.2224 37.9999 20.632 37.4236 22.7592 36.3971L24.2652 35.5687C26.4865 34.182 28.3125 32.273 29.555 30.0038C21.1779 29.7157 14.4575 23.1063 14.4575 15.0021Z" fill="#3BD4AE"></path><path d="M31.3812 22.9978C31.3812 25.5371 30.7224 27.9143 29.5741 30.0034C21.1782 29.7152 14.4766 23.1058 14.4766 15.0017C14.4766 12.4624 15.1354 10.0852 16.2837 7.99609C24.6608 8.28424 31.3812 14.8936 31.3812 22.9978Z" fill="#243746"></path><path d="M30.1385 0C27.5972 0 25.1876 0.576295 23.0604 1.60282L21.5732 2.43125C19.3519 3.81796 17.5259 5.74495 16.2646 7.9961C24.6605 8.28425 31.3622 14.8936 31.3622 22.9978C31.3622 25.5371 30.7033 27.9143 29.555 30.0034C29.7432 30.0034 29.9503 30.0214 30.1385 30.0214C32.6799 30.0214 35.0895 29.4451 37.2167 28.4006L38.7038 27.5721C42.9959 24.8888 45.8196 20.2604 45.8196 15.0017C45.8384 6.71745 38.8168 0 30.1385 0Z" fill="#3B6CB3"></path><path d="M60.503 7.49121V30.7591H54.9497V7.49121H60.503Z" fill="#F6F7FB"></path><path d="M90.5284 20.5485V30.7597H85.314V20.9807C85.314 19.3238 84.4857 18.2613 82.8103 18.2613C81.0784 18.2613 80.0995 19.4319 80.0995 21.3949V30.7777H74.885V20.9987C74.885 19.3419 74.0567 18.2793 72.3813 18.2793C70.6494 18.2793 69.6705 19.4499 69.6705 21.4129V30.7957H64.4561V14.1372H69.6705V15.668C70.4612 14.5334 72.0048 13.6689 74.3203 13.6689C76.3722 13.6689 77.897 14.4614 78.8759 15.8661C79.8548 14.5334 81.4549 13.6689 83.9209 13.6689C87.9118 13.6689 90.5284 16.4063 90.5284 20.5485Z" fill="#F6F7FB"></path><path d="M120.121 20.5485V30.7597H114.907V20.9807C114.907 19.3238 114.078 18.2613 112.403 18.2613C110.671 18.2613 109.692 19.4319 109.692 21.3949V30.7777H104.478V20.9987C104.478 19.3419 103.649 18.2793 101.974 18.2793C100.242 18.2793 99.2633 19.4499 99.2633 21.4129V30.7957H94.0488V14.1372H99.2633V15.668C100.054 14.5334 101.598 13.6689 103.913 13.6689C105.965 13.6689 107.49 14.4614 108.469 15.8661C109.448 14.5334 111.048 13.6689 113.514 13.6689C117.523 13.6689 120.121 16.4063 120.121 20.5485Z" fill="#F6F7FB"></path><path d="M132.489 26.7617C133.92 26.7617 135.125 26.2214 135.821 25.501L140.001 27.7882C138.306 30.0574 135.727 31.2099 132.433 31.2099C126.484 31.2099 122.813 27.392 122.813 22.4394C122.813 17.4869 126.56 13.6689 132.056 13.6689C137.139 13.6689 140.885 17.4329 140.885 22.4394C140.885 23.1418 140.81 23.8081 140.678 24.4385H128.348C128.988 26.1674 130.588 26.7617 132.489 26.7617ZM135.69 20.7286C135.125 18.8016 133.562 18.0992 132 18.0992C130.023 18.0992 128.706 19.0357 128.216 20.7286H135.69Z" fill="#F6F7FB"></path><path d="M154.213 13.8125V19.4494C152.067 19.1252 148.999 19.9537 148.999 23.2313V30.7412H143.784V14.1367H148.999V17.0902C149.695 14.875 152.011 13.8125 154.213 13.8125Z" fill="#F6F7FB"></path><path d="M163.719 18.9271V24.8161C163.719 26.2388 164.999 26.3829 167.296 26.2388V30.7591C160.481 31.4255 158.505 29.4625 158.505 24.8161V18.9271H155.719V14.1366H158.505V10.985L163.719 9.49023V14.1366H167.296V18.9271H163.719Z" fill="#F6F7FB"></path><path d="M178.704 26.7617C180.135 26.7617 181.34 26.2214 182.036 25.501L186.215 27.7882C184.521 30.0574 181.942 31.2099 178.648 31.2099C172.699 31.2099 169.028 27.392 169.028 22.4394C169.028 17.4869 172.774 13.6689 178.271 13.6689C183.354 13.6689 187.1 17.4329 187.1 22.4394C187.1 23.1418 187.025 23.8081 186.893 24.4385H174.563C175.184 26.1674 176.784 26.7617 178.704 26.7617ZM181.904 20.7286C181.34 18.8016 179.777 18.0992 178.215 18.0992C176.238 18.0992 174.92 19.0357 174.431 20.7286H181.904Z" fill="#F6F7FB"></path><path d="M188.945 22.458C188.945 17.5055 192.879 13.6875 198.15 13.6875C201.52 13.6875 204.513 15.3804 206 17.9377L201.444 20.459C200.861 19.2884 199.6 18.604 198.075 18.604C195.816 18.604 194.14 20.1708 194.14 22.458C194.14 24.7452 195.816 26.312 198.075 26.312C199.6 26.312 200.899 25.6096 201.444 24.457L206 26.9423C204.513 29.5356 201.557 31.2285 198.15 31.2285C192.879 31.2285 188.945 27.4105 188.945 22.458Z" fill="#F6F7FB"></path></svg> 